<?xml version="1.0" encoding="utf-8"?>
<!-- Generator: Adobe Illustrator 25.4.1, SVG Export Plug-In . SVG Version: 6.00 Build 0)  -->
<svg version="1.1" id="Layer_1" xmlns="http://www.w3.org/2000/svg" xmlns:xlink="http://www.w3.org/1999/xlink" x="0px" y="0px"
	 viewBox="0 0 120.9 80.9" style="enable-background:new 0 0 120.9 80.9;" xml:space="preserve">
<style type="text/css">
	.st0{clip-path:url(#SVGID_00000029012547943771050890000016530759350926000275_);}
	.st1{clip-path:url(#SVGID_00000089549698100184769930000011382900938305473981_);fill:#CB001C;}
	.st2{clip-path:url(#SVGID_00000089549698100184769930000011382900938305473981_);fill:#E6E6E6;}
	.st3{clip-path:url(#SVGID_00000089549698100184769930000011382900938305473981_);fill:#2A3560;}
	.st4{clip-path:url(#SVGID_00000089549698100184769930000011382900938305473981_);fill:#D9D9D9;}
	.st5{opacity:0.3;clip-path:url(#SVGID_00000029012547943771050890000016530759350926000275_);}
</style>
<g>
	<defs>
		<rect id="SVGID_1_" x="0.4" y="0.4" width="120" height="80"/>
	</defs>
	<clipPath id="SVGID_00000139271582667234687340000007023095213516657061_">
		<use xlink:href="#SVGID_1_"  style="overflow:visible;"/>
	</clipPath>
	<g style="clip-path:url(#SVGID_00000139271582667234687340000007023095213516657061_);">
		<g>
			<defs>
				<rect id="SVGID_00000031197847555521548660000014883953731484307601_" x="-1.9" y="-1.4" width="143.4" height="83.7"/>
			</defs>
			<clipPath id="SVGID_00000154427020760371177060000009267753517206108305_">
				<use xlink:href="#SVGID_00000031197847555521548660000014883953731484307601_"  style="overflow:visible;"/>
			</clipPath>
			
				<rect x="-1.9" y="75.8" style="clip-path:url(#SVGID_00000154427020760371177060000009267753517206108305_);fill:#CB001C;" width="143.4" height="6.4"/>
			
				<rect x="-1.9" y="69.4" style="clip-path:url(#SVGID_00000154427020760371177060000009267753517206108305_);fill:#E6E6E6;" width="143.4" height="6.4"/>
			
				<rect x="-1.9" y="63" style="clip-path:url(#SVGID_00000154427020760371177060000009267753517206108305_);fill:#CB001C;" width="143.4" height="6.4"/>
			
				<rect x="-1.9" y="56.5" style="clip-path:url(#SVGID_00000154427020760371177060000009267753517206108305_);fill:#E6E6E6;" width="143.4" height="6.4"/>
			
				<rect x="-1.9" y="50.1" style="clip-path:url(#SVGID_00000154427020760371177060000009267753517206108305_);fill:#CB001C;" width="143.4" height="6.4"/>
			
				<rect x="-1.9" y="43.6" style="clip-path:url(#SVGID_00000154427020760371177060000009267753517206108305_);fill:#E6E6E6;" width="143.4" height="6.4"/>
			
				<rect x="-1.9" y="37.2" style="clip-path:url(#SVGID_00000154427020760371177060000009267753517206108305_);fill:#CB001C;" width="143.4" height="6.4"/>
			
				<rect x="-1.9" y="30.8" style="clip-path:url(#SVGID_00000154427020760371177060000009267753517206108305_);fill:#E6E6E6;" width="143.4" height="6.4"/>
			
				<rect x="-1.9" y="24.3" style="clip-path:url(#SVGID_00000154427020760371177060000009267753517206108305_);fill:#CB001C;" width="143.4" height="6.4"/>
			
				<rect x="-1.9" y="17.9" style="clip-path:url(#SVGID_00000154427020760371177060000009267753517206108305_);fill:#E6E6E6;" width="143.4" height="6.4"/>
			
				<rect x="-1.9" y="11.5" style="clip-path:url(#SVGID_00000154427020760371177060000009267753517206108305_);fill:#CB001C;" width="143.4" height="6.4"/>
			
				<rect x="-1.9" y="5" style="clip-path:url(#SVGID_00000154427020760371177060000009267753517206108305_);fill:#E6E6E6;" width="143.4" height="6.4"/>
			
				<rect x="-1.9" y="-1.4" style="clip-path:url(#SVGID_00000154427020760371177060000009267753517206108305_);fill:#CB001C;" width="143.4" height="6.4"/>
			
				<rect x="-1.9" y="-1.4" style="clip-path:url(#SVGID_00000154427020760371177060000009267753517206108305_);fill:#2A3560;" width="65.5" height="45.1"/>
			<polygon style="clip-path:url(#SVGID_00000154427020760371177060000009267753517206108305_);fill:#D9D9D9;" points="4,3.6 
				4.6,5.3 6.4,5.3 4.9,6.3 5.5,8 4,7 2.6,8 3.1,6.3 1.7,5.3 3.5,5.3 			"/>
			<polygon style="clip-path:url(#SVGID_00000154427020760371177060000009267753517206108305_);fill:#D9D9D9;" points="4,11.1 
				4.6,12.8 6.4,12.8 4.9,13.8 5.5,15.5 4,14.5 2.6,15.5 3.1,13.8 1.7,12.8 3.5,12.8 			"/>
			<polygon style="clip-path:url(#SVGID_00000154427020760371177060000009267753517206108305_);fill:#D9D9D9;" points="4,18.6 
				4.6,20.3 6.4,20.3 4.9,21.3 5.5,23.1 4,22 2.6,23.1 3.1,21.3 1.7,20.3 3.5,20.3 			"/>
			<polygon style="clip-path:url(#SVGID_00000154427020760371177060000009267753517206108305_);fill:#D9D9D9;" points="4,26.1 
				4.6,27.8 6.4,27.8 4.9,28.9 5.5,30.6 4,29.5 2.6,30.6 3.1,28.9 1.7,27.8 3.5,27.8 			"/>
			<polygon style="clip-path:url(#SVGID_00000154427020760371177060000009267753517206108305_);fill:#D9D9D9;" points="4,33.6 
				4.6,35.3 6.4,35.3 4.9,36.4 5.5,38.1 4,37 2.6,38.1 3.1,36.4 1.7,35.3 3.5,35.3 			"/>
			<polygon style="clip-path:url(#SVGID_00000154427020760371177060000009267753517206108305_);fill:#D9D9D9;" points="9.2,7.5 
				9.8,9.2 11.6,9.2 10.1,10.3 10.7,12 9.2,10.9 7.8,12 8.4,10.3 6.9,9.2 8.7,9.2 			"/>
			<polygon style="clip-path:url(#SVGID_00000154427020760371177060000009267753517206108305_);fill:#D9D9D9;" points="9.2,15 
				9.8,16.7 11.6,16.7 10.1,17.8 10.7,19.5 9.2,18.4 7.8,19.5 8.4,17.8 6.9,16.7 8.7,16.7 			"/>
			<polygon style="clip-path:url(#SVGID_00000154427020760371177060000009267753517206108305_);fill:#D9D9D9;" points="9.2,22.6 
				9.8,24.3 11.6,24.3 10.1,25.3 10.7,27 9.2,26 7.8,27 8.4,25.3 6.9,24.3 8.7,24.3 			"/>
			<polygon style="clip-path:url(#SVGID_00000154427020760371177060000009267753517206108305_);fill:#D9D9D9;" points="9.2,30.1 
				9.8,31.8 11.6,31.8 10.1,32.8 10.7,34.5 9.2,33.5 7.8,34.5 8.4,32.8 6.9,31.8 8.7,31.8 			"/>
			<polygon style="clip-path:url(#SVGID_00000154427020760371177060000009267753517206108305_);fill:#D9D9D9;" points="14.6,3.6 
				15.1,5.3 16.9,5.3 15.4,6.3 16,8 14.6,7 13.1,8 13.7,6.3 12.2,5.3 14,5.3 			"/>
			<polygon style="clip-path:url(#SVGID_00000154427020760371177060000009267753517206108305_);fill:#D9D9D9;" points="14.6,11.1 
				15.1,12.8 16.9,12.8 15.4,13.8 16,15.5 14.6,14.5 13.1,15.5 13.7,13.8 12.2,12.8 14,12.8 			"/>
			<polygon style="clip-path:url(#SVGID_00000154427020760371177060000009267753517206108305_);fill:#D9D9D9;" points="14.6,18.6 
				15.1,20.3 16.9,20.3 15.4,21.3 16,23.1 14.6,22 13.1,23.1 13.7,21.3 12.2,20.3 14,20.3 			"/>
			<polygon style="clip-path:url(#SVGID_00000154427020760371177060000009267753517206108305_);fill:#D9D9D9;" points="14.6,26.1 
				15.1,27.8 16.9,27.8 15.4,28.9 16,30.6 14.6,29.5 13.1,30.6 13.7,28.9 12.2,27.8 14,27.8 			"/>
			<polygon style="clip-path:url(#SVGID_00000154427020760371177060000009267753517206108305_);fill:#D9D9D9;" points="14.6,33.6 
				15.1,35.3 16.9,35.3 15.4,36.4 16,38.1 14.6,37 13.1,38.1 13.7,36.4 12.2,35.3 14,35.3 			"/>
			<polygon style="clip-path:url(#SVGID_00000154427020760371177060000009267753517206108305_);fill:#D9D9D9;" points="19.8,7.5 
				20.3,9.2 22.1,9.2 20.7,10.3 21.2,12 19.8,10.9 18.3,12 18.9,10.3 17.4,9.2 19.2,9.2 			"/>
			<polygon style="clip-path:url(#SVGID_00000154427020760371177060000009267753517206108305_);fill:#D9D9D9;" points="19.8,15 
				20.3,16.7 22.1,16.7 20.7,17.8 21.2,19.5 19.8,18.4 18.3,19.5 18.9,17.8 17.4,16.7 19.2,16.7 			"/>
			<polygon style="clip-path:url(#SVGID_00000154427020760371177060000009267753517206108305_);fill:#D9D9D9;" points="19.8,22.6 
				20.3,24.3 22.1,24.3 20.7,25.3 21.2,27 19.8,26 18.3,27 18.9,25.3 17.4,24.3 19.2,24.3 			"/>
			<polygon style="clip-path:url(#SVGID_00000154427020760371177060000009267753517206108305_);fill:#D9D9D9;" points="19.8,30.1 
				20.3,31.8 22.1,31.8 20.7,32.8 21.2,34.5 19.8,33.5 18.3,34.5 18.9,32.8 17.4,31.8 19.2,31.8 			"/>
			<polygon style="clip-path:url(#SVGID_00000154427020760371177060000009267753517206108305_);fill:#D9D9D9;" points="25.1,3.6 
				25.6,5.3 27.4,5.3 26,6.3 26.5,8 25.1,7 23.6,8 24.2,6.3 22.8,5.3 24.5,5.3 			"/>
			<polygon style="clip-path:url(#SVGID_00000154427020760371177060000009267753517206108305_);fill:#D9D9D9;" points="25.1,11.1 
				25.6,12.8 27.4,12.8 26,13.8 26.5,15.5 25.1,14.5 23.6,15.5 24.2,13.8 22.8,12.8 24.5,12.8 			"/>
			<polygon style="clip-path:url(#SVGID_00000154427020760371177060000009267753517206108305_);fill:#D9D9D9;" points="25.1,18.6 
				25.6,20.3 27.4,20.3 26,21.3 26.5,23.1 25.1,22 23.6,23.1 24.2,21.3 22.8,20.3 24.5,20.3 			"/>
			<polygon style="clip-path:url(#SVGID_00000154427020760371177060000009267753517206108305_);fill:#D9D9D9;" points="25.1,26.1 
				25.6,27.8 27.4,27.8 26,28.9 26.5,30.6 25.1,29.5 23.6,30.6 24.2,28.9 22.8,27.8 24.5,27.8 			"/>
			<polygon style="clip-path:url(#SVGID_00000154427020760371177060000009267753517206108305_);fill:#D9D9D9;" points="25.1,33.6 
				25.6,35.3 27.4,35.3 26,36.4 26.5,38.1 25.1,37 23.6,38.1 24.2,36.4 22.8,35.3 24.5,35.3 			"/>
			<polygon style="clip-path:url(#SVGID_00000154427020760371177060000009267753517206108305_);fill:#D9D9D9;" points="30.3,7.5 
				30.9,9.2 32.7,9.2 31.2,10.3 31.8,12 30.3,10.9 28.9,12 29.4,10.3 28,9.2 29.8,9.2 			"/>
			<polygon style="clip-path:url(#SVGID_00000154427020760371177060000009267753517206108305_);fill:#D9D9D9;" points="30.3,15 
				30.9,16.7 32.7,16.7 31.2,17.8 31.8,19.5 30.3,18.4 28.9,19.5 29.4,17.8 28,16.7 29.8,16.7 			"/>
			<polygon style="clip-path:url(#SVGID_00000154427020760371177060000009267753517206108305_);fill:#D9D9D9;" points="30.3,22.6 
				30.9,24.3 32.7,24.3 31.2,25.3 31.8,27 30.3,26 28.9,27 29.4,25.3 28,24.3 29.8,24.3 			"/>
			<polygon style="clip-path:url(#SVGID_00000154427020760371177060000009267753517206108305_);fill:#D9D9D9;" points="30.3,30.1 
				30.9,31.8 32.7,31.8 31.2,32.8 31.8,34.5 30.3,33.5 28.9,34.5 29.4,32.8 28,31.8 29.8,31.8 			"/>
			<polygon style="clip-path:url(#SVGID_00000154427020760371177060000009267753517206108305_);fill:#D9D9D9;" points="35.6,3.6 
				36.2,5.3 38,5.3 36.5,6.3 37.1,8 35.6,7 34.2,8 34.7,6.3 33.3,5.3 35.1,5.3 			"/>
			<polygon style="clip-path:url(#SVGID_00000154427020760371177060000009267753517206108305_);fill:#D9D9D9;" points="35.6,11.1 
				36.2,12.8 38,12.8 36.5,13.8 37.1,15.5 35.6,14.5 34.2,15.5 34.7,13.8 33.3,12.8 35.1,12.8 			"/>
			<polygon style="clip-path:url(#SVGID_00000154427020760371177060000009267753517206108305_);fill:#D9D9D9;" points="35.6,18.6 
				36.2,20.3 38,20.3 36.5,21.3 37.1,23.1 35.6,22 34.2,23.1 34.7,21.3 33.3,20.3 35.1,20.3 			"/>
			<polygon style="clip-path:url(#SVGID_00000154427020760371177060000009267753517206108305_);fill:#D9D9D9;" points="35.6,26.1 
				36.2,27.8 38,27.8 36.5,28.9 37.1,30.6 35.6,29.5 34.2,30.6 34.7,28.9 33.3,27.8 35.1,27.8 			"/>
			<polygon style="clip-path:url(#SVGID_00000154427020760371177060000009267753517206108305_);fill:#D9D9D9;" points="35.6,33.6 
				36.2,35.3 38,35.3 36.5,36.4 37.1,38.1 35.6,37 34.2,38.1 34.7,36.4 33.3,35.3 35.1,35.3 			"/>
			<polygon style="clip-path:url(#SVGID_00000154427020760371177060000009267753517206108305_);fill:#D9D9D9;" points="40.9,7.5 
				41.4,9.2 43.2,9.2 41.8,10.3 42.3,12 40.9,10.9 39.4,12 40,10.3 38.5,9.2 40.3,9.2 			"/>
			<polygon style="clip-path:url(#SVGID_00000154427020760371177060000009267753517206108305_);fill:#D9D9D9;" points="40.9,15 
				41.4,16.7 43.2,16.7 41.8,17.8 42.3,19.5 40.9,18.4 39.4,19.5 40,17.8 38.5,16.7 40.3,16.7 			"/>
			<polygon style="clip-path:url(#SVGID_00000154427020760371177060000009267753517206108305_);fill:#D9D9D9;" points="40.9,22.6 
				41.4,24.3 43.2,24.3 41.8,25.3 42.3,27 40.9,26 39.4,27 40,25.3 38.5,24.3 40.3,24.3 			"/>
			<polygon style="clip-path:url(#SVGID_00000154427020760371177060000009267753517206108305_);fill:#D9D9D9;" points="40.9,30.1 
				41.4,31.8 43.2,31.8 41.8,32.8 42.3,34.5 40.9,33.5 39.4,34.5 40,32.8 38.5,31.8 40.3,31.8 			"/>
			<polygon style="clip-path:url(#SVGID_00000154427020760371177060000009267753517206108305_);fill:#D9D9D9;" points="46.2,3.6 
				46.7,5.3 48.5,5.3 47.1,6.3 47.6,8 46.2,7 44.7,8 45.3,6.3 43.8,5.3 45.6,5.3 			"/>
			<polygon style="clip-path:url(#SVGID_00000154427020760371177060000009267753517206108305_);fill:#D9D9D9;" points="46.2,11.1 
				46.7,12.8 48.5,12.8 47.1,13.8 47.6,15.5 46.2,14.5 44.7,15.5 45.3,13.8 43.8,12.8 45.6,12.8 			"/>
			<polygon style="clip-path:url(#SVGID_00000154427020760371177060000009267753517206108305_);fill:#D9D9D9;" points="46.2,18.6 
				46.7,20.3 48.5,20.3 47.1,21.3 47.6,23.1 46.2,22 44.7,23.1 45.3,21.3 43.8,20.3 45.6,20.3 			"/>
			<polygon style="clip-path:url(#SVGID_00000154427020760371177060000009267753517206108305_);fill:#D9D9D9;" points="46.2,26.1 
				46.7,27.8 48.5,27.8 47.1,28.9 47.6,30.6 46.2,29.5 44.7,30.6 45.3,28.9 43.8,27.8 45.6,27.8 			"/>
			<polygon style="clip-path:url(#SVGID_00000154427020760371177060000009267753517206108305_);fill:#D9D9D9;" points="46.2,33.6 
				46.7,35.3 48.5,35.3 47.1,36.4 47.6,38.1 46.2,37 44.7,38.1 45.3,36.4 43.8,35.3 45.6,35.3 			"/>
			<polygon style="clip-path:url(#SVGID_00000154427020760371177060000009267753517206108305_);fill:#D9D9D9;" points="51.4,7.5 
				52,9.2 53.8,9.2 52.3,10.3 52.9,12 51.4,10.9 50,12 50.5,10.3 49.1,9.2 50.9,9.2 			"/>
			<polygon style="clip-path:url(#SVGID_00000154427020760371177060000009267753517206108305_);fill:#D9D9D9;" points="51.4,15 
				52,16.7 53.8,16.7 52.3,17.8 52.9,19.5 51.4,18.4 50,19.5 50.5,17.8 49.1,16.7 50.9,16.7 			"/>
			<polygon style="clip-path:url(#SVGID_00000154427020760371177060000009267753517206108305_);fill:#D9D9D9;" points="51.4,22.6 
				52,24.3 53.8,24.3 52.3,25.3 52.9,27 51.4,26 50,27 50.5,25.3 49.1,24.3 50.9,24.3 			"/>
			<polygon style="clip-path:url(#SVGID_00000154427020760371177060000009267753517206108305_);fill:#D9D9D9;" points="51.4,30.1 
				52,31.8 53.8,31.8 52.3,32.8 52.9,34.5 51.4,33.5 50,34.5 50.5,32.8 49.1,31.8 50.9,31.8 			"/>
			<polygon style="clip-path:url(#SVGID_00000154427020760371177060000009267753517206108305_);fill:#D9D9D9;" points="56.7,3.6 
				57.3,5.3 59.1,5.3 57.6,6.3 58.2,8 56.7,7 55.3,8 55.8,6.3 54.4,5.3 56.2,5.3 			"/>
			<polygon style="clip-path:url(#SVGID_00000154427020760371177060000009267753517206108305_);fill:#D9D9D9;" points="56.7,11.1 
				57.3,12.8 59.1,12.8 57.6,13.8 58.2,15.5 56.7,14.5 55.3,15.5 55.8,13.8 54.4,12.8 56.2,12.8 			"/>
			<polygon style="clip-path:url(#SVGID_00000154427020760371177060000009267753517206108305_);fill:#D9D9D9;" points="56.7,18.6 
				57.3,20.3 59.1,20.3 57.6,21.3 58.2,23.1 56.7,22 55.3,23.1 55.8,21.3 54.4,20.3 56.2,20.3 			"/>
			<polygon style="clip-path:url(#SVGID_00000154427020760371177060000009267753517206108305_);fill:#D9D9D9;" points="56.7,26.1 
				57.3,27.8 59.1,27.8 57.6,28.9 58.2,30.6 56.7,29.5 55.3,30.6 55.8,28.9 54.4,27.8 56.2,27.8 			"/>
			<polygon style="clip-path:url(#SVGID_00000154427020760371177060000009267753517206108305_);fill:#D9D9D9;" points="56.7,33.6 
				57.3,35.3 59.1,35.3 57.6,36.4 58.2,38.1 56.7,37 55.3,38.1 55.8,36.4 54.4,35.3 56.2,35.3 			"/>
		</g>
	</g>
	<g style="opacity:0.3;clip-path:url(#SVGID_00000139271582667234687340000007023095213516657061_);">
		
			<image style="overflow:visible;" width="1008" height="1008" xlink:href="7F6975E9.png"  transform="matrix(0.24 0 0 0.24 -60.5344 -80.6144)">
		</image>
	</g>
	<g style="clip-path:url(#SVGID_00000139271582667234687340000007023095213516657061_);">
		
			<image style="overflow:visible;" width="1008" height="1008" xlink:href="7F6975EB.png"  transform="matrix(0.24 0 0 0.24 -60.5344 -80.6144)">
		</image>
	</g>
</g>
</svg>
